<?xml version="1.0" encoding="utf-8"?>
<!-- Generator: Adobe Illustrator 18.0.0, SVG Export Plug-In . SVG Version: 6.00 Build 0)  -->
<!DOCTYPE svg PUBLIC "-//W3C//DTD SVG 1.1//EN" "http://www.w3.org/Graphics/SVG/1.1/DTD/svg11.dtd">
<svg version="1.1" id="Layer_1" xmlns="http://www.w3.org/2000/svg" xmlns:xlink="http://www.w3.org/1999/xlink" x="0px" y="0px"
	 viewBox="253.3 335 105.1 116" enable-background="new 253.3 335 105.1 116" xml:space="preserve">
<path fill="#F1F1F2" d="M308.6,441.9c0.7,0.7,1.7,1.1,2.7,1.1c0.5,0,0.9-0.1,1.4-0.2c1.3-0.6,2.3-2,2.3-3.4v-24.4h31.8
	c2.1,0,3.7-1.6,3.7-3.7v-37.8c0-2.1-1.6-3.7-3.7-3.7h-31.8v-23.2c0-1.5-0.9-2.8-2.3-3.4c-0.4-0.2-0.9-0.3-1.4-0.3
	c-1,0-1.9,0.4-2.7,1.1l-46.2,46.3c-0.7,0.7-1.1,1.7-1.1,2.6c0,1,0.4,1.8,1.1,2.6L308.6,441.9z"/>
<path fill="#00BEF3" d="M256.7,401.2l46.2,46.3c2.2,2.2,5.2,3.4,8.3,3.4c1.4,0,2.8-0.2,4.1-0.7l0.3-0.1l0.3-0.1
	c4.3-1.9,7-6.1,7-10.7v-16.4h23.8c6.5,0,11.7-5.1,11.7-11.7v-37.8c0-6.5-5.1-11.7-11.7-11.7h-23.8v-15.2c0-4.7-2.8-8.9-7.1-10.7
	c-1.4-0.6-3-1-4.6-1c-3.1,0-6.1,1.3-8.3,3.5l-46.2,46.3c-2.2,2.2-3.4,5.2-3.4,8.2C253.3,396.1,254.5,399,256.7,401.2z M262.4,390.4
	l46.2-46.3c0.7-0.7,1.7-1.1,2.7-1.1c0.5,0,0.9,0.1,1.4,0.3c1.5,0.6,2.3,2,2.3,3.4v23.2h31.8c2.1,0,3.7,1.6,3.7,3.7v37.8
	c0,2.1-1.6,3.7-3.7,3.7h-31.8v24.4c0,1.5-1,2.8-2.3,3.4c-0.4,0.2-0.9,0.2-1.4,0.2c-1,0-1.9-0.4-2.7-1.1l-46.2-46.3
	c-0.7-0.7-1.1-1.6-1.1-2.6C261.3,392.1,261.7,391.2,262.4,390.4z"/>
<g>
	<path fill="#FFFFFF" d="M314.9,346.7c0-1.5-0.9-2.8-2.3-3.4c-1.3-0.6-2.9-0.2-4,0.9l-46.2,46.3c-0.7,0.7-1.1,1.7-1.1,2.6
		c0,1,0.4,1.8,1.1,2.6l23.9,24l49.7-49.7h-21.1V346.7z"/>
</g>
</svg>
