<?xml version="1.0" encoding="utf-8"?>
<!-- Generator: Adobe Illustrator 18.0.0, SVG Export Plug-In . SVG Version: 6.00 Build 0)  -->
<!DOCTYPE svg PUBLIC "-//W3C//DTD SVG 1.1//EN" "http://www.w3.org/Graphics/SVG/1.1/DTD/svg11.dtd">
<svg version="1.1" id="Layer_1" xmlns="http://www.w3.org/2000/svg" xmlns:xlink="http://www.w3.org/1999/xlink" x="0px" y="0px"
	 viewBox="253.3 335 105.1 116" enable-background="new 253.3 335 105.1 116" xml:space="preserve">
<g>
	<path fill="#FFFFFF" d="M303.1,344.1c-0.7-0.7-1.7-1.1-2.7-1.1c-0.5,0-0.9,0.1-1.4,0.2c-1.3,0.6-2.3,2-2.3,3.4V371H265
		c-2.1,0-3.7,1.6-3.7,3.7v37.8c0,2.1,1.6,3.7,3.7,3.7h31.8v23.2c0,1.5,0.9,2.8,2.3,3.4c0.4,0.2,0.9,0.3,1.4,0.3c1,0,1.9-0.4,2.7-1.1
		l46.2-46.3c0.7-0.7,1.1-1.7,1.1-2.6c0-1-0.4-1.8-1.1-2.6L303.1,344.1z"/>
	<path fill="#00BEF3" d="M355,384.7l-46.2-46.3c-2.2-2.2-5.2-3.4-8.3-3.4c-1.4,0-2.8,0.2-4.1,0.7l-0.3,0.1l-0.3,0.1
		c-4.3,1.9-7,6.1-7,10.7V363H265c-6.5,0-11.7,5.1-11.7,11.7v37.8c0,6.5,5.1,11.7,11.7,11.7h23.8v15.2c0,4.7,2.8,8.9,7.1,10.7
		c1.4,0.6,3,1,4.6,1c3.1,0,6.1-1.3,8.3-3.5l46.2-46.3c2.2-2.2,3.4-5.2,3.4-8.2C358.4,389.9,357.2,386.9,355,384.7z M349.3,395.5
		l-46.2,46.3c-0.7,0.7-1.7,1.1-2.7,1.1c-0.5,0-0.9-0.1-1.4-0.3c-1.5-0.6-2.3-2-2.3-3.4v-23.2H265c-2.1,0-3.7-1.6-3.7-3.7v-37.8
		c0-2.1,1.6-3.7,3.7-3.7h31.8v-24.4c0-1.5,1-2.8,2.3-3.4c0.4-0.2,0.9-0.2,1.4-0.2c1,0,1.9,0.4,2.7,1.1l46.2,46.3
		c0.7,0.7,1.1,1.6,1.1,2.6C350.4,393.8,350,394.8,349.3,395.5z"/>
</g>
<g>
	<path fill="#F1F1F2" d="M296.8,439.3c0,1.5,0.9,2.8,2.3,3.4c1.3,0.6,2.9,0.2,4-0.9l46.2-46.3c0.7-0.7,1.1-1.7,1.1-2.6
		c0-1-0.4-1.8-1.1-2.6l-23.9-24l-49.7,49.7h21.1V439.3z"/>
</g>
</svg>
